External Loads File
version=1
nRows=77
nColumns=13
Range=5.000000e-03-10 seconds
endheader
time 	forceRightX 	forceRightY 	forceRightZ 	pointRightX 	pointRightY 	pointRightZ 	forceLeftX 	forceLeftY 	forceLeftZ 	pointLeftX 	pointLeftY 	pointLeftZ 		
7.505000 291.776041 830.017289 -0.000000 0.244923 0.150973 -0.160099 -76.935163 -25.775809 -0.000000 0.238995 0.488469 -0.401184
7.510000 292.316378 778.763005 -0.000000 0.235621 0.149611 -0.159916 -79.071239 -14.159378 -0.000000 0.248613 0.490165 -0.401279
7.515000 289.194271 718.073732 -0.000000 0.226436 0.149050 -0.159563 -79.620623 -2.336099 -0.000000 0.258427 0.491290 -0.401770
7.520000 280.830311 649.597914 -0.000000 0.217307 0.149240 -0.159249 -78.654326 8.999885 -0.000000 0.267612 0.491831 -0.401621
7.525000 269.062808 574.215062 -0.000000 0.208155 0.150052 -0.158794 -76.355616 19.670123 -0.000000 0.276921 0.491817 -0.401692
7.530000 252.677731 494.606481 -0.000000 0.199449 0.151446 -0.158398 -73.035337 29.365070 -0.000000 0.285875 0.491216 -0.401872
7.535000 232.969582 412.598887 -0.000000 0.191054 0.153761 -0.158157 -68.993037 38.388056 -0.000000 0.294565 0.489878 -0.402072
7.540000 210.697158 330.270336 -0.000000 0.182725 0.156767 -0.157930 -64.513250 47.292459 -0.000000 0.302859 0.487834 -0.402288
7.545000 186.211812 249.874192 -0.000000 0.174760 0.160410 -0.157881 -59.925934 56.784564 -0.000000 0.310653 0.485288 -0.402388
7.550000 160.687497 172.936227 -0.000000 0.166983 0.164628 -0.157890 -55.437063 67.833661 -0.000000 0.318070 0.481938 -0.402483
7.555000 134.817737 100.974856 -0.000000 0.159558 0.169421 -0.157839 -51.321716 81.299182 -0.000000 0.325085 0.477657 -0.402775
7.560000 109.229021 35.325945 -0.000000 0.152371 0.174704 -0.157860 -47.992126 97.924478 -0.000000 0.331415 0.472988 -0.402975
7.565000 84.592831 -23.237080 -0.000000 0.145472 0.180565 -0.157766 -45.582586 118.541128 -0.000000 0.337538 0.467361 -0.403218
7.570000 61.217460 -73.570371 -0.000000 0.138851 0.186920 -0.157742 -44.541125 143.653182 -0.000000 0.342894 0.460992 -0.403361
7.575000 39.363198 -114.767266 -0.000000 0.132664 0.193718 -0.157697 -44.999898 173.559391 -0.000000 0.347973 0.453889 -0.403717
7.580000 19.501213 -145.868235 -0.000000 0.126944 0.200838 -0.157531 -47.362761 207.971885 -0.000000 0.352423 0.446157 -0.403922
7.585000 2.180516 -166.302193 -0.000000 0.121643 0.207858 -0.157473 -51.817379 246.101728 -0.000000 0.356606 0.437776 -0.404183
7.590000 -12.235373 -176.075333 -0.000000 0.116779 0.215590 -0.157323 -57.882482 286.815550 -0.000000 0.360608 0.428728 -0.403999
7.595000 -22.816296 -175.989123 -0.000000 0.112130 0.223561 -0.157287 -65.588982 328.600578 -0.000000 0.364315 0.419243 -0.403457
7.600000 -29.123930 -167.622248 -0.000000 0.107937 0.232052 -0.157400 -74.207394 370.055686 -0.000000 0.367911 0.409199 -0.403219
7.605000 -30.746056 -153.117347 -0.000000 0.104056 0.241017 -0.157334 -83.471199 409.858905 -0.000000 0.371052 0.398817 -0.403009
7.610000 -27.828913 -134.754465 -0.000000 0.100502 0.250431 -0.157319 -92.854838 447.123820 -0.000000 0.373871 0.388253 -0.402768
7.615000 -20.817672 -114.639451 -0.000000 0.097388 0.260102 -0.157379 -102.217573 481.349861 -0.000000 0.376441 0.377683 -0.402481
7.620000 -10.725784 -94.426221 -0.000000 0.094871 0.270197 -0.157333 -110.451866 512.604827 -0.000000 0.378600 0.366848 -0.402419
7.625000 1.468275 -75.336561 -0.000000 0.092143 0.280255 -0.158174 -117.150402 541.018178 -0.000000 0.380255 0.355776 -0.402394
7.630000 14.745147 -58.117220 -0.000000 0.090818 0.290687 -0.158258 -122.355917 566.757353 -0.000000 0.381600 0.344889 -0.402569
7.635000 28.040289 -43.181745 -0.000000 0.090167 0.301001 -0.158322 -125.747473 590.249328 -0.000000 0.382197 0.333928 -0.401800
7.640000 40.388039 -30.841401 -0.000000 0.090067 0.311433 -0.158518 -126.588220 612.212804 -0.000000 0.382312 0.322977 -0.402358
7.645000 51.029466 -21.322149 -0.000000 0.090726 0.321948 -0.158708 -124.991823 633.302133 -0.000000 0.382247 0.312082 -0.402414
7.650000 59.328674 -14.767290 -0.000000 0.092015 0.332521 -0.158955 -121.198475 654.188697 -0.000000 0.381184 0.301311 -0.401767
7.655000 64.772446 -11.257637 -0.000000 0.094196 0.343140 -0.159092 -115.055771 675.656576 -0.000000 0.379830 0.290498 -0.401497
7.660000 67.012746 -10.604606 -0.000000 0.096764 0.353692 -0.159389 -107.559556 698.308983 -0.000000 0.377688 0.279814 -0.401331
7.665000 65.861941 -12.457707 -0.000000 0.099996 0.364114 -0.159675 -99.156193 722.767642 -0.000000 0.374962 0.269272 -0.401098
7.670000 61.322900 -16.342606 -0.000000 0.104094 0.374404 -0.159843 -89.485130 749.529983 -0.000000 0.371590 0.258810 -0.400911
7.675000 53.620853 -21.603104 -0.000000 0.108863 0.384500 -0.160056 -78.678820 778.714956 -0.000000 0.367601 0.248508 -0.400797
7.680000 43.218372 -27.538674 -0.000000 0.114087 0.394132 -0.160243 -67.544415 810.058787 -0.000000 0.363000 0.238573 -0.400609
7.685000 30.681253 -33.679198 -0.000000 0.120022 0.403362 -0.160407 -54.985870 843.080917 -0.000000 0.357809 0.229073 -0.400429
7.690000 16.608582 -39.667203 -0.000000 0.126573 0.412300 -0.160544 -39.616229 876.814595 -0.000000 0.352043 0.219874 -0.400439
7.695000 1.600667 -45.252884 -0.000000 0.133636 0.421112 -0.160684 -20.906283 909.865180 -0.000000 0.345808 0.211084 -0.400193
7.700000 -13.807799 -50.315031 -0.000000 0.141196 0.429531 -0.160771 1.218392 940.694401 -0.000000 0.339114 0.202544 -0.400070
7.705000 -29.117192 -54.805314 -0.000000 0.149177 0.437232 -0.160907 25.597421 967.819192 -0.000000 0.331951 0.194431 -0.400013
7.710000 -43.962899 -58.637202 -0.000000 0.157556 0.444433 -0.161009 51.930089 989.929049 -0.000000 0.324339 0.187019 -0.399973
7.715000 -58.043963 -61.619888 -0.000000 0.166150 0.451191 -0.161231 79.481096 1005.966246 -0.000000 0.316384 0.180138 -0.399921
7.720000 -71.145339 -63.378545 -0.000000 0.175061 0.457683 -0.161475 108.049184 1015.147160 -0.000000 0.308091 0.173830 -0.399965
7.725000 -82.964928 -63.501792 -0.000000 0.184259 0.463559 -0.161739 136.184518 1017.094393 -0.000000 0.299512 0.168098 -0.399979
7.730000 -93.231316 -61.486521 -0.000000 0.193967 0.468639 -0.161388 163.542915 1011.520068 -0.000000 0.290739 0.162994 -0.399984
7.735000 -101.508666 -57.130685 -0.000000 0.203178 0.473381 -0.162209 187.282567 998.660696 -0.000000 0.281814 0.158432 -0.400052
7.740000 -107.714620 -49.803353 -0.000000 0.213037 0.477722 -0.162535 210.211258 977.812714 -0.000000 0.272724 0.154549 -0.400185
7.745000 -111.545065 -39.399879 -0.000000 0.223282 0.481396 -0.162637 231.041854 948.919838 -0.000000 0.263516 0.151214 -0.400310
7.750000 -112.700503 -26.274187 -0.000000 0.232965 0.484092 -0.163206 246.830755 912.522127 -0.000000 0.254191 0.148561 -0.400525
7.755000 -111.146044 -10.486002 -0.000000 0.242865 0.486851 -0.163405 259.765553 868.073585 -0.000000 0.244795 0.146687 -0.400638
7.760000 -106.833616 7.244944 -0.000000 0.252939 0.488380 -0.163583 269.116432 815.998975 -0.000000 0.235440 0.145576 -0.400598
7.765000 -99.991680 25.819725 -0.000000 0.262494 0.489884 -0.163890 273.066903 757.518302 -0.000000 0.226174 0.145045 -0.400780
7.770000 -91.042507 44.424626 -0.000000 0.271989 0.490644 -0.164090 272.599995 693.157741 -0.000000 0.217134 0.145075 -0.401037
7.775000 -80.481783 62.189693 -0.000000 0.281224 0.490916 -0.164237 267.787479 623.722993 -0.000000 0.208230 0.146094 -0.401148
7.780000 -68.852226 78.452162 -0.000000 0.290172 0.490485 -0.164290 258.775465 550.094170 -0.000000 0.199518 0.147894 -0.401009
7.785000 -56.785517 92.838091 -0.000000 0.298765 0.489605 -0.164295 245.617338 473.529930 -0.000000 0.191058 0.150490 -0.400871
7.790000 -44.899562 105.346583 -0.000000 0.306947 0.488026 -0.164309 228.780797 395.495897 -0.000000 0.182865 0.153821 -0.400680
7.795000 -33.657488 116.286846 -0.000000 0.315020 0.485553 -0.164019 209.100586 317.541438 -0.000000 0.175058 0.157903 -0.400384
7.800000 -23.722736 126.115098 -0.000000 0.322388 0.482637 -0.163964 186.664056 241.900075 -0.000000 0.167481 0.162438 -0.400261
7.805000 -15.442038 135.632767 -0.000000 0.329058 0.478911 -0.163981 162.575350 170.281633 -0.000000 0.160399 0.167613 -0.400031
7.810000 -8.728746 145.892205 -0.000000 0.335737 0.474549 -0.163659 138.174197 103.949866 -0.000000 0.153545 0.173212 -0.399790
7.815000 -3.805976 158.074006 -0.000000 0.341766 0.469469 -0.163507 114.110323 44.472807 -0.000000 0.146960 0.179315 -0.399687
7.820000 -0.591642 173.450705 -0.000000 0.347349 0.463588 -0.163237 91.235391 -7.193678 -0.000000 0.140697 0.185508 -0.399654
7.825000 1.556704 193.141215 -0.000000 0.352661 0.456952 -0.162806 70.064578 -50.595562 -0.000000 0.134712 0.192863 -0.399686
7.830000 2.653376 217.875251 -0.000000 0.357299 0.449492 -0.162297 50.904500 -85.164221 -0.000000 0.128465 0.200230 -0.398750
7.835000 2.504268 247.819825 -0.000000 0.361624 0.441320 -0.161579 34.187702 -110.728451 -0.000000 0.123119 0.207848 -0.398630
7.840000 1.810097 282.466225 -0.000000 0.365757 0.431964 -0.161116 19.858947 -127.593648 -0.000000 0.118314 0.215787 -0.398585
7.845000 -0.039259 320.667218 -0.000000 0.369718 0.422926 -0.161389 8.409403 -136.214682 -0.000000 0.113818 0.224061 -0.398463
7.850000 -2.749877 360.761486 -0.000000 0.373257 0.413467 -0.161883 -0.080670 -137.499199 -0.000000 0.109718 0.232579 -0.398517
7.855000 -5.608223 400.887355 -0.000000 0.376592 0.403406 -0.162049 -5.715442 -132.612503 -0.000000 0.106051 0.241476 -0.398523
7.860000 -8.783570 439.321436 -0.000000 0.379569 0.392919 -0.162035 -8.366729 -122.947275 -0.000000 0.102844 0.250518 -0.398610
7.865000 -12.503308 474.764398 -0.000000 0.382078 0.382480 -0.162488 -8.140435 -110.022149 -0.000000 0.100072 0.259830 -0.398804
7.870000 -16.511664 506.515779 -0.000000 0.384207 0.372149 -0.163046 -5.502150 -95.302679 -0.000000 0.097692 0.269461 -0.398990
7.875000 -19.875537 534.475032 -0.000000 0.385819 0.361362 -0.163280 -1.150511 -80.074506 -0.000000 0.095851 0.279339 -0.399337
7.880000 -22.475909 558.939956 -0.000000 0.386984 0.350481 -0.163390 4.355881 -65.351172 -0.000000 0.094512 0.289570 -0.399551
7.885000 -24.604479 580.443467 -0.000000 0.387610 0.339686 -0.163246 10.509991 -51.771862 -0.000000 0.093760 0.299970 -0.399895
